# xmcd CD database file
#
# Track frame offsets:
#	150
#	14429
#	32297
#	53600
#	67677
#	84609
#	98389
#	115646
#	130554
#	147329
#	161455
#	173128
#	190444
#	203938
#	221879
#	236092
#	251997
#	267744
#	282807
#	297795
#
# Disc length: 4223 seconds
#
# Revision: 0
# Processed by: cddbd v1.5.1PL2 Copyright (c) Steve Scherf et al.
# Submitted via: CDex 1.51
#
DISCID=1d107d14
DTITLE=Varios Artistas - 30º Aniv. Casa Shows Peixe Vivo
DYEAR=2006
DGENRE=Country
TTITLE0=Trem que e  Bom
TTITLE1=Trovejou mas nao Choveu
TTITLE2=Cai Sereno, Saudade Boa Briga, Eu Achei Bao
TTITLE3=Pompeano
TTITLE4=Goianeiro
TTITLE5=Bate Forte Coracao
TTITLE6=Samaria
TTITLE7=Forro de Itaunas
TTITLE8=Mulher Comprometida
TTITLE9=Nao chora, nao chora nao
TTITLE10=Na saideira
TTITLE11=Maluca 
TTITLE12=Estrada da Vida
TTITLE13=Vira-Vira
TTITLE14=Danca da Maozinha
TTITLE15=Sem voce nao sei viver
TTITLE16=Quem ama sabe
TTITLE17=Adeus pra nunca mais
TTITLE18=A Barra vai pesar
TTITLE19=Esquecer e nosso jeito
EXTD=YEAR: 2006
EXTT0=
EXTT1=
EXTT2=
EXTT3=
EXTT4=
EXTT5=
EXTT6=
EXTT7=
EXTT8=
EXTT9=
EXTT10=
EXTT11=
EXTT12=
EXTT13=
EXTT14=
EXTT15=
EXTT16=
EXTT17=
EXTT18=
EXTT19=
PLAYORDER=
